HIERARCHY
ROOT ui
{
	 OFFSET 0 0 0
	 CHANNELS 3 XPosition YPosition Z Position
	 EndSite
	 {
	 OFFSET 0 -1 0
	 }
}
ROOT li
{
	 OFFSET 0 0 0
	 CHANNELS 3 XPosition YPosition Z Position
	 EndSite
	 {
	 OFFSET 0 -1 0
	 }
}
ROOT ul
{
	 OFFSET 0 0 0
	 CHANNELS 3 XPosition YPosition Z Position
	 EndSite
	 {
	 OFFSET 0 -1 0
	 }
}
ROOT ll
{
	 OFFSET 0 0 0
	 CHANNELS 3 XPosition YPosition Z Position
	 EndSite
	 {
	 OFFSET 0 -1 0
	 }
}
ROOT tt
{
	 OFFSET 0 0 0
	 CHANNELS 3 XPosition YPosition Z Position
	 EndSite
	 {
	 OFFSET 0 -1 0
	 }
}
ROOT tb
{
	 OFFSET 0 0 0
	 CHANNELS 3 XPosition YPosition Z Position
	 EndSite
	 {
	 OFFSET 0 -1 0
	 }
}
ROOT td
{
	 OFFSET 0 0 0
	 CHANNELS 3 XPosition YPosition Z Position
	 EndSite
	 {
	 OFFSET 0 -1 0
	 }
}
ROOT v
{
	 OFFSET 0 0 0
	 CHANNELS 3 XPosition YPosition Z Position
	 EndSite
	 {
	 OFFSET 0 -1 0
	 }
}
ROOT bn
{
	 OFFSET 0 0 0
	 CHANNELS 3 XPosition YPosition Z Position
	 EndSite
	 {
	 OFFSET 0 -1 0
	 }
}
MOTION
Frames: 21
Frame Time: 0.002
0.004115283012390137	0.0020357170104980467	0		0.45791064453125	-2.310080810546875	0		-1.1470911865234374	-0.04992280960083008	0		-0.7808619995117188	-2.28634814453125	0		1.365604248046875	-0.6641654052734375	0		2.898787353515625	0.06160009384155273	0		4.54778369140625	0.15003030395507813	0		5.64205810546875	0.16912425231933595	0		-0.17034033203125	5.93146533203125	0		
-0.006750014781951905	-0.011576126098632813	0		0.4566954345703125	-2.3127783203125	0		-1.1548143310546874	-0.05681341552734375	0		-0.7352798461914063	-2.30017236328125	0		1.4270052490234375	-0.6708831176757812	0		2.908134521484375	0.06016156387329102	0		4.5333076171875	0.15936109924316405	0		5.64236474609375	0.17127378845214844	0		-0.18528450012207032	5.9208759765625	0		
0.004933138847351074	0.0024074809551239014	0		0.4398946533203125	-2.295159423828125	0		-1.1543829345703125	-0.056847759246826175	0		-0.7920385131835938	-2.280038818359375	0		1.427557861328125	-0.6704073486328125	0		2.9235400390625	0.06064849472045898	0		4.5554296875	0.1460402374267578	0		5.64687255859375	0.16120845031738282	0		-0.18699655151367187	5.9230517578125	0		
-0.020628988265991213	0.003098567962646484	0		0.4475834655761719	-2.30599169921875	0		-1.1539376220703126	-0.05687190628051758	0		-0.7124950561523438	-2.299453857421875	0		1.428126220703125	-0.6699135131835937	0		2.884005615234375	0.06418459320068359	0		4.53409814453125	0.1615674285888672	0		5.6430205078125	0.175801025390625	0		-0.3353381042480469	5.8929560546875	0		
0.020547210693359377	-0.011438689231872558	0		0.4593759765625	-2.31188525390625	0		-1.145358154296875	-0.05003459930419922	0		-0.7665090942382813	-2.2943701171875	0		1.364767578125	-0.665234130859375	0		2.901210205078125	0.05267183685302734	0		4.54935693359375	0.1544225616455078	0		5.64335888671875	0.17811332702636717	0		-0.354024169921875	5.89643603515625	0		
-0.002787126064300537	0.0012237629890441894	0		0.466406005859375	-2.304678955078125	0		-1.1290364990234374	-0.057328765869140624	0		-0.7276331787109375	-2.2959892578125	0		1.380412353515625	-0.6610098266601563	0		2.917001953125	0.07320075225830078	0		4.54774951171875	0.1545933837890625	0		5.64665283203125	0.19413941955566405	0		-0.1721200714111328	5.93027783203125	0		
0.009735559463500977	0.006235696792602539	0		0.46322662353515626	-2.30828515625	0		-1.1034144287109375	-0.04777443695068359	0		-0.7755734252929688	-2.286025634765625	0		1.4328980712890624	-0.66544091796875	0		2.905370361328125	0.07122390747070312	0		4.560169921875	0.15650794982910157	0		5.65116064453125	0.18242129516601563	0		-0.1890196075439453	5.92176123046875	0		
-0.004145194053649903	-0.010279681205749512	0		0.48800665283203126	-2.313388671875	0		-1.11517822265625	-0.058544429779052734	0		-0.7048582763671875	-2.29518896484375	0		1.43039599609375	-0.6678750610351563	0		2.885691162109375	0.06738066864013671	0		4.5457041015625	0.1658980712890625	0		5.6443515625	0.18501930236816405	0		-0.18975967407226563	5.92195556640625	0		
-0.018497949600219728	0.00421259593963623	0		0.4628894348144531	-2.310606201171875	0		-1.1476947021484376	-0.05394878387451172	0		-0.775901611328125	-2.287828857421875	0		1.4309217529296876	-0.6673672485351563	0		2.90694873046875	0.06080150604248047	0		4.547822265625	0.1529745330810547	0		5.64465625	0.18727987670898438	0		-0.3248372802734375	5.90450830078125	0		
-0.018132877349853516	0.0044391961097717285	0		0.46369366455078126	-2.310288330078125	0		-1.1432496337890625	-0.050006572723388674	0		-0.7622079467773437	-2.293970947265625	0		1.3733533935546876	-0.6698565673828125	0		2.886427734375	0.06894720458984376	0		4.54128173828125	0.16118812561035156	0		5.6449384765625	0.18950538635253905	0		-0.19126414489746094	5.92234423828125	0		
0.021087326049804688	-0.0020074191093444826	0		0.4425941162109375	-2.30159814453125	0		-1.1388592529296875	-0.04706168365478516	0		-0.759417236328125	-2.291920654296875	0		1.43798779296875	-0.6594769897460937	0		2.90274267578125	0.06943540954589844	0		4.55156298828125	0.16108738708496093	0		5.64814501953125	0.20540760803222657	0		-0.17784820556640624	5.93329248046875	0		
-0.01751338768005371	0.004880232810974121	0		0.44850692749023435	-2.289383544921875	0		-1.1385595703125	-0.047047657012939455	0		-0.7356619873046875	-2.2892294921875	0		1.371391357421875	-0.6588543701171875	0		2.89110791015625	0.07538719940185547	0		4.54184326171875	0.16330526733398437	0		5.6525537109375	0.19352655029296875	0		-0.19282015991210938	5.92272119140625	0		
-0.007417272090911866	-0.0040776519775390626	0		0.44811056518554687	-2.29207470703125	0		-1.14641796875	-0.0539005012512207	0		-0.7469052124023438	-2.28294580078125	0		1.43264794921875	-0.665426513671875	0		2.927221435546875	0.06850444793701171	0		4.5520458984375	0.16315090942382812	0		5.65275048828125	0.19559721374511718	0		-0.19361546325683593	5.9228994140625	0		
-0.007208908081054687	-0.0038779959678649904	0		0.4903350524902344	-2.314494873046875	0		-1.146201171875	-0.05389438629150391	0		-0.7744224243164063	-2.28940380859375	0		1.369027587890625	-0.6609154663085938	0		2.887456298828125	0.07186941528320312	0		4.55222607421875	0.16412532043457032	0		5.64285009765625	0.1858803253173828	0		-0.3429105224609375	5.8945390625	0		
-0.007042026996612548	-0.003692154884338379	0		0.44304766845703125	-2.303437255859375	0		-1.1260784912109374	-0.05722277069091797	0		-0.760986328125	-2.295555908203125	0		1.37825	-0.663655029296875	0		2.89951025390625	0.06632659912109375	0		4.54238330078125	0.1662143249511719	0		5.64592236328125	0.19975666809082032	0		-0.3285355529785156	5.90442138671875	0		
0.0051171531677246095	-0.001718358039855957	0		0.4735560302734375	-2.30168896484375	0		-1.1218773193359375	-0.05328944778442383	0		-0.7544105224609375	-2.289599853515625	0		1.3845926513671876	-0.6563719482421875	0		2.91985400390625	0.08061226654052735	0		4.54968115234375	0.17896408081054688	0		5.6531376953125	0.19778370666503906	0		-0.31318197631835937	5.91227978515625	0		
-0.006821010112762451	-0.003367748022079468	0		0.4630774230957031	-2.295288330078125	0		-1.137677734375	-0.047036724090576174	0		-0.6970133056640625	-2.29147705078125	0		1.5585455322265624	-0.6718379516601563	0		2.9078876953125	0.07838120269775391	0		4.55253662109375	0.1667249450683594	0		5.6461103515625	0.20317686462402343	0		-0.19770982360839845	5.9255068359375	0		
-0.006758883953094482	-0.0032301599979400633	0		0.4853314208984375	-2.302440673828125	0		-1.141657470703125	-0.04998604583740234	0		-0.7705865478515626	-2.287242431640625	0		1.369866455078125	-0.6594523315429688	0		2.887861083984375	0.07423184204101563	0		4.547705078125	0.17555320739746094	0		5.6432353515625	0.192711181640625	0		-0.3459542541503906	5.8949873046875	0		
-0.006722322940826416	-0.0031084229946136475	0		0.46856155395507815	-2.307985595703125	0		-1.1416151123046876	-0.050006034851074216	0		-0.7024329833984375	-2.2982998046875	0		1.433928955078125	-0.6631795043945312	0		2.892775634765625	0.06763616943359375	0		4.54771923828125	0.1762436981201172	0		5.64620751953125	0.20612367248535157	0		-0.34567034912109373	5.89405078125	0		
0.019275932312011718	-0.004412829875946045	0		0.4688470153808594	-2.307822998046875	0		-1.1257052001953125	-0.05728330230712891	0		-0.7591098022460937	-2.295370849609375	0		1.3731258544921876	-0.6559391479492187	0		2.899799560546875	0.06896973419189453	0		4.55258837890625	0.16880258178710938	0		5.6462314453125	0.20743148803710937	0		-0.3321664733886719	5.9048955078125	0		
-0.009448290824890137	0.013138982772827148	0		0.47318096923828123	-2.30273974609375	0		-1.1216322021484375	-0.053373783111572266	0		-0.7317485961914062	-2.288783447265625	0		1.440208984375	-0.6557479248046875	0		2.887892333984375	0.07556942749023438	0		4.5417958984375	0.183565673828125	0		5.64624609375	0.20864707946777344	0		-0.1994918518066406	5.92385986328125	0		
